PathFileType   4   (X/Y/Z)
DataRate	CameraRate	NumFrames	NumMarkers	Units	OrigDataRate	OrigDataStartFrame	OrigNumFrames
120.0	120.0	12	37	mm	120.0	14	81
Frame#	Time	midhip	hip_r	hip_l	knee_r	knee_l	ankle_r	ankle_l	midasis	asis_r	asis_l	psis_r	psis_l	epicondLat_r	epicondLat_l	epicondMed_r	epicondMed_l	malleolusLat_r	malleolusLat_l	malleolusMedv_r	malleolusMedv_l	neck	subclavicle_r	subclavicle_l	sternalnotch	xyphoidprocess	thighwand_r	thighwand_l	upperleg1_r	upperleg1_l	upperleg2_r	upperleg2_l	shankwand_r	shankwand_l	lowerleg1_r	lowerleg1_l	toe_r	toe_l
 	 	X1	Y1	Z1	X2	Y2	Z2	X3	Y3	Z3	X4	Y4	Z4	X5	Y5	Z5	X6	Y6	Z6	X7	Y7	Z7	X8	Y8	Z8	X9	Y9	Z9	X10	Y10	Z10	X11	Y11	Z11	X12	Y12	Z12	X13	Y13	Z13	X14	Y14	Z14	X15	Y15	Z15	X16	Y16	Z16	X17	Y17	Z17	X18	Y18	Z18	X19	Y19	Z19	X20	Y20	Z20	X21	Y21	Z21	X22	Y22	Z22	X23	Y23	Z23	X24	Y24	Z24	X25	Y25	Z25	X26	Y26	Z26	X27	Y27	Z27	X28	Y28	Z28	X29	Y29	Z29	X30	Y30	Z30	X31	Y31	Z31	X32	Y32	Z32	X33	Y33	Z33	X34	Y34	Z34	X35	Y35	Z35	X36	Y36	Z36	X37	Y37	Z37

	14	0.17500	684.643	839.262	-298.811	680.911	819.850	-235.465	683.087	827.244	-352.684	777.690	451.458	-186.475	704.707	470.251	-343.652	514.353	180.459	-240.398	636.976	65.884	-341.182	747.446	898.150	-282.182	737.057	891.375	-182.507	757.835	904.926	-381.857	593.336	936.616	-270.720	599.433	941.890	-325.056	772.500	457.334	-132.037	725.174	470.212	-394.163	794.845	443.342	-240.442	689.497	452.233	-306.157	499.158	188.364	-205.918	644.029	64.472	-379.004	542.521	175.867	-261.531	652.541	80.197	-314.687	681.194	1351.649	-263.664	769.695	1256.815	-223.546	763.503	1259.653	-328.376	754.067	1271.532	-279.963	774.114	1097.822	-284.887	877.090	653.899	-175.356	820.632	637.851	-303.806	784.790	681.746	-148.265	767.345	675.896	-381.109	799.384	597.828	-143.629	771.601	588.744	-373.178	562.291	278.022	-123.447	633.732	185.892	-449.052	579.108	280.189	-161.413	641.327	191.189	-406.663	566.686	92.401	-181.279	762.208	37.971	-340.350
	15	0.18333	699.784	839.504	-298.944	696.256	819.986	-235.700	697.437	827.501	-352.925	804.872	454.822	-185.427	709.643	470.121	-344.923	556.255	171.509	-240.307	637.467	66.302	-341.597	763.239	897.589	-282.938	753.700	890.813	-183.271	772.778	904.365	-382.605	609.698	937.670	-269.869	615.509	943.080	-324.258	799.992	460.866	-130.978	729.421	469.659	-395.705	823.270	446.969	-238.815	697.306	450.359	-309.884	540.031	179.146	-206.238	644.232	64.781	-379.467	585.196	167.497	-261.003	652.435	80.755	-315.288	698.139	1351.423	-262.616	786.761	1256.733	-222.115	780.734	1259.725	-327.138	771.114	1271.471	-278.619	791.614	1097.847	-283.786	898.239	660.829	-176.388	830.662	634.022	-306.250	805.578	685.754	-148.891	777.582	673.784	-383.066	823.178	602.530	-143.575	780.781	586.444	-376.001	597.306	272.790	-124.065	634.691	186.280	-449.887	614.876	275.024	-161.790	642.325	191.471	-407.774	613.046	89.256	-177.431	762.332	37.828	-340.591
	16	0.19167	715.035	839.438	-298.956	711.825	819.830	-235.824	712.009	827.456	-353.048	831.362	458.040	-184.431	714.816	469.986	-346.161	599.285	162.212	-240.165	638.094	66.860	-341.990	779.132	896.822	-283.599	770.445	890.042	-183.939	787.818	903.602	-383.258	626.030	938.331	-268.942	631.513	943.854	-323.384	826.746	464.250	-129.978	733.869	469.152	-397.215	851.098	450.785	-237.596	703.661	449.586	-312.412	581.974	169.459	-206.548	644.556	65.238	-379.909	629.004	158.899	-260.337	652.684	81.347	-315.906	715.087	1350.893	-261.532	803.770	1256.265	-220.751	798.005	1259.468	-325.796	788.231	1271.056	-277.290	809.042	1097.517	-282.750	918.765	667.416	-177.336	840.821	630.147	-308.693	825.764	689.510	-149.468	787.933	671.642	-384.962	846.281	607.080	-143.623	789.364	584.409	-378.471	632.702	266.992	-124.785	635.779	186.792	-450.674	651.000	269.424	-162.320	643.103	191.951	-408.723	659.915	85.788	-173.677	762.540	37.678	-340.847
	17	0.20000	730.361	839.053	-298.856	727.678	819.397	-235.829	726.838	827.116	-353.044	857.088	461.023	-183.470	720.271	469.862	-347.304	643.340	152.825	-239.916	638.849	67.579	-342.331	795.145	895.895	-284.167	787.332	889.107	-184.500	802.958	902.684	-383.834	642.317	938.571	-267.907	647.435	944.206	-322.390	852.687	467.389	-129.017	738.610	468.701	-398.613	878.305	454.498	-236.149	708.816	449.693	-313.578	624.923	159.529	-206.778	645.001	65.865	-380.297	673.618	150.157	-259.475	653.650	81.928	-316.451	732.098	1350.112	-260.442	820.826	1255.354	-219.406	815.210	1258.748	-324.453	805.417	1270.284	-275.990	826.228	1096.721	-281.687	938.666	673.546	-178.162	851.099	626.293	-310.998	845.351	692.909	-149.929	798.134	669.532	-386.591	868.695	611.448	-143.519	797.234	582.429	-380.451	668.493	260.698	-125.515	637.026	187.458	-451.369	687.580	263.431	-163.007	644.124	192.652	-409.537	707.169	82.034	-170.068	762.831	37.525	-341.086
	18	0.20833	745.736	838.372	-298.667	743.812	818.723	-235.717	741.925	826.516	-352.915	881.996	463.686	-182.546	726.030	469.765	-348.299	688.281	143.585	-239.511	639.709	68.479	-342.596	811.267	894.859	-284.641	804.345	888.059	-184.938	818.188	901.659	-384.343	658.561	938.402	-266.740	663.282	944.163	-321.244	877.764	470.194	-128.096	743.698	468.311	-399.835	904.826	458.007	-234.459	714.573	449.695	-314.317	668.794	149.565	-206.849	645.558	66.680	-380.607	719.167	141.711	-258.389	654.812	82.560	-316.887	749.217	1349.108	-259.473	838.124	1254.100	-218.122	832.566	1257.581	-323.131	822.656	1269.181	-274.731	843.555	1095.519	-280.515	957.959	679.105	-178.856	861.497	622.508	-313.057	864.216	695.986	-150.287	808.179	667.531	-387.846	890.369	615.400	-143.246	805.175	580.523	-382.096	704.708	253.973	-126.144	638.467	188.302	-451.942	724.537	257.085	-163.629	645.809	193.487	-410.149	754.732	78.045	-166.635	763.200	37.376	-341.285
	19	0.21667	761.142	837.423	-298.394	760.156	817.851	-235.500	757.238	825.705	-352.672	906.047	465.954	-181.685	732.103	469.704	-349.109	733.929	134.691	-238.899	640.643	69.571	-342.777	827.455	893.752	-285.000	821.409	886.931	-185.221	833.501	900.572	-384.779	674.778	937.857	-265.429	679.075	943.771	-319.926	901.952	472.583	-127.240	749.165	467.982	-400.840	930.541	461.221	-232.645	720.765	449.628	-314.897	713.470	139.756	-206.681	646.211	67.697	-380.826	766.043	133.826	-256.704	655.915	83.452	-317.181	766.460	1347.872	-258.539	855.350	1252.586	-216.981	849.928	1256.057	-321.826	839.924	1267.793	-273.528	860.651	1093.988	-279.264	976.675	683.975	-179.440	872.025	618.832	-314.795	882.445	698.587	-150.504	818.347	665.568	-388.788	911.342	618.838	-142.829	813.353	578.664	-383.463	741.359	246.883	-126.559	640.134	189.338	-452.372	761.875	250.510	-163.858	648.003	194.420	-410.587	802.561	73.905	-163.391	763.639	37.235	-341.427
	20	0.22500	776.642	836.282	-298.026	776.621	816.821	-235.200	772.735	824.735	-352.341	929.220	467.757	-180.939	738.496	469.688	-349.715	780.072	126.291	-238.033	641.621	70.874	-342.876	843.665	892.599	-285.231	838.440	885.741	-185.334	848.890	899.458	-385.129	690.996	936.985	-263.973	694.847	943.082	-318.439	925.248	474.483	-126.497	755.033	467.710	-401.608	955.314	463.908	-230.451	726.811	449.687	-315.695	758.790	130.264	-206.197	646.940	68.928	-380.957	813.509	126.326	-254.550	656.887	84.622	-317.289	783.791	1346.439	-257.594	872.593	1250.897	-215.907	867.197	1254.209	-320.601	857.216	1266.189	-272.397	877.564	1092.188	-277.862	994.864	688.040	-179.965	882.690	615.294	-316.174	900.227	700.558	-150.506	828.896	663.604	-389.342	931.713	621.741	-142.168	821.723	576.846	-384.618	778.407	239.517	-126.664	642.040	190.583	-452.652	799.815	243.700	-163.637	650.398	195.513	-410.850	850.621	69.751	-160.328	764.131	37.106	-341.512
	21	0.23333	792.360	835.065	-297.560	793.149	815.665	-234.833	788.383	823.649	-351.936	951.515	469.035	-180.383	745.224	469.720	-350.113	826.478	118.477	-236.857	642.617	72.402	-342.905	859.875	891.417	-285.328	855.395	884.498	-185.281	864.354	898.336	-385.374	707.252	935.838	-262.381	710.640	942.143	-316.797	947.671	475.831	-125.940	761.315	467.490	-402.136	978.218	465.851	-228.255	733.119	450.200	-315.722	804.548	121.220	-205.333	647.723	70.392	-381.012	860.885	119.588	-252.576	657.845	85.984	-317.259	801.098	1344.914	-256.707	890.025	1249.104	-214.807	884.382	1252.202	-319.554	874.521	1264.454	-271.349	894.571	1090.254	-276.460	1012.598	691.192	-180.501	893.506	611.911	-317.192	917.829	701.940	-150.326	839.920	661.845	-389.489	951.373	623.908	-141.408	830.474	575.125	-385.163	815.743	231.988	-126.405	644.189	192.055	-452.779	838.262	236.707	-162.995	652.834	196.825	-410.961	898.849	65.779	-157.420	764.656	36.998	-341.546
	22	0.24167	808.350	833.819	-297.000	809.720	814.405	-234.405	804.156	822.478	-351.467	972.944	469.741	-180.103	752.319	469.802	-350.305	872.866	111.307	-235.319	643.625	74.177	-342.879	876.086	890.209	-285.294	872.283	883.203	-185.088	879.890	897.214	-385.499	723.588	934.468	-260.660	726.497	940.989	-315.021	969.256	476.573	-125.653	768.033	467.320	-402.431	999.143	467.083	-226.538	740.097	450.905	-315.048	850.469	112.741	-204.037	648.550	72.108	-381.007	908.138	113.933	-250.551	659.130	87.442	-317.236	818.311	1343.360	-255.855	907.645	1247.305	-213.769	901.322	1250.140	-318.746	891.788	1262.670	-270.391	911.611	1088.291	-275.159	1029.967	693.336	-181.117	904.513	608.690	-317.879	935.253	702.680	-149.872	851.340	660.244	-389.294	970.331	625.317	-140.683	839.741	573.468	-385.143	853.186	224.439	-125.768	646.577	193.772	-452.757	876.827	229.810	-161.843	655.265	198.384	-410.961	947.121	62.219	-154.629	765.192	36.921	-341.542
	23	0.25000	824.636	832.552	-296.323	826.388	813.059	-233.888	820.057	821.234	-350.904	993.524	469.834	-180.184	759.849	469.921	-350.293	918.925	104.821	-233.375	644.662	76.217	-342.811	892.346	888.977	-285.136	889.195	881.866	-184.780	895.497	896.089	-385.491	740.045	932.920	-258.813	742.458	939.650	-313.130	990.039	476.659	-125.721	775.234	467.194	-402.506	1018.448	467.593	-225.173	747.474	451.431	-314.707	896.226	104.928	-202.278	649.428	74.097	-380.956	955.053	109.085	-248.008	660.508	89.050	-317.201	835.518	1341.719	-254.930	925.423	1245.606	-212.910	918.270	1248.143	-318.007	908.972	1260.900	-269.518	928.966	1086.421	-273.959	1047.075	694.402	-181.863	915.769	605.629	-318.284	952.282	702.776	-149.182	862.819	658.544	-388.888	988.594	625.998	-139.981	849.266	572.068	-385.087	890.493	217.034	-124.779	649.221	195.752	-452.591	915.143	223.302	-160.221	657.528	200.210	-410.993	995.218	59.312	-151.910	765.723	36.886	-341.509
	24	0.25833	841.215	831.255	-295.507	843.253	811.642	-233.249	836.117	819.920	-350.211	1013.283	469.297	-180.693	767.914	470.057	-350.084	964.278	99.064	-231.009	645.761	78.542	-342.713	908.726	887.729	-284.865	906.264	880.505	-184.389	911.189	894.953	-385.340	756.659	931.235	-256.832	758.562	938.151	-311.130	1010.060	476.061	-126.206	782.986	467.100	-402.375	1036.413	467.102	-223.887	755.445	452.025	-314.097	941.420	97.882	-200.051	650.388	76.380	-380.873	1001.220	105.030	-245.056	661.742	90.983	-317.082	852.717	1340.068	-253.985	942.804	1243.948	-212.192	935.521	1246.422	-317.170	926.051	1259.202	-268.716	946.367	1084.731	-273.104	1064.039	694.354	-182.763	927.359	602.718	-318.473	969.121	702.236	-148.742	874.546	656.903	-388.352	1006.280	625.875	-139.479	859.190	570.850	-384.837	927.379	209.956	-123.486	652.161	198.012	-452.294	952.941	217.215	-158.379	659.683	202.376	-411.060	1042.817	57.270	-149.223	766.244	36.900	-341.458
	25	0.26667	858.110	829.943	-294.495	860.426	810.172	-232.447	852.380	818.536	-349.344	1032.287	468.162	-181.666	776.648	470.175	-349.685	1008.522	94.075	-228.242	646.980	81.172	-342.596	925.310	886.474	-284.490	923.629	879.150	-183.941	926.990	893.799	-385.039	773.465	929.449	-254.707	774.840	936.516	-309.016	1029.388	474.801	-127.145	791.394	467.020	-402.058	1053.854	465.502	-222.877	763.957	452.950	-313.077	985.627	91.687	-197.381	651.482	78.975	-380.769	1045.910	102.059	-241.913	663.212	93.138	-316.917	869.757	1338.525	-253.137	959.637	1242.355	-211.518	952.447	1244.776	-316.471	943.011	1257.612	-267.976	963.051	1083.098	-272.318	1080.974	693.211	-183.805	939.392	599.946	-318.520	985.961	700.773	-148.955	886.910	655.419	-387.689	1023.584	624.845	-139.462	869.680	569.694	-384.329	963.557	203.390	-121.939	655.466	200.563	-451.884	989.678	211.412	-156.605	662.422	204.813	-410.846	1089.503	56.239	-146.549	766.760	36.966	-341.398
